<?xml version="1.0" standalone="no"?>
<!DOCTYPE svg PUBLIC "-//W3C//DTD SVG 20010904//EN"
 "http://www.w3.org/TR/2001/REC-SVG-20010904/DTD/svg10.dtd">
<svg version="1.0" xmlns="http://www.w3.org/2000/svg"
 width="3000.000000pt" height="3000.000000pt" viewBox="0 0 3000.000000 3000.000000"
 preserveAspectRatio="xMidYMid meet">

<g transform="translate(0.000000,3000.000000) scale(0.100000,-0.100000)"
fill="#000000" stroke="none">
<path d="M3132 26989 c-45 -13 -109 -80 -122 -127 -7 -28 -9 -1013 -8 -3244
l3 -3204 27 -41 c15 -22 44 -51 65 -64 l38 -24 3226 0 3225 0 41 27 c22 15 51
44 64 65 l24 38 0 3225 0 3225 -24 38 c-13 21 -42 50 -64 65 l-41 27 -3210 2
c-2007 1 -3223 -2 -3244 -8z m5569 -966 c64 -38 59 146 59 -2383 0 -2076 -2
-2305 -16 -2335 -33 -70 168 -65 -2384 -65 -2529 0 -2345 -5 -2383 59 -16 27
-17 180 -17 2341 0 2115 1 2314 16 2339 9 15 28 35 43 44 24 15 218 16 2339
17 2163 0 2316 -1 2343 -17z"/>
<path d="M5057 25070 c-46 -14 -93 -56 -116 -103 l-21 -44 2 -1294 3 -1294 24
-38 c13 -21 42 -50 64 -65 l41 -27 1291 -3 1292 -2 54 28 c43 22 59 38 81 81
l28 53 0 1278 0 1278 -28 53 c-22 43 -38 59 -81 81 l-53 28 -1277 -1 c-702 0
-1289 -5 -1304 -9z"/>
<path d="M11640 26520 l0 -480 -480 0 -480 0 0 -480 0 -480 480 0 480 0 0
-480 0 -480 -480 0 -480 0 0 -480 0 -480 960 0 960 0 0 -1440 0 -1440 480 0
480 0 0 1440 0 1440 480 0 480 0 0 -480 0 -480 480 0 480 0 0 -480 0 -480
-480 0 -480 0 0 -1440 0 -1440 480 0 480 0 0 1440 0 1440 480 0 480 0 0 -480
0 -480 480 0 480 0 0 480 0 480 480 0 480 0 0 -960 0 -960 -960 0 -960 0 0
-960 0 -960 -1440 0 -1440 0 0 -480 0 -480 -480 0 -480 0 0 960 0 960 480 0
480 0 0 480 0 480 -2400 0 -2400 0 0 -480 0 -480 -480 0 -480 0 0 480 0 480
-2400 0 -2400 0 0 -1440 0 -1440 480 0 480 0 0 -480 0 -480 -480 0 -480 0 0
-2400 0 -2400 480 0 480 0 0 1440 0 1440 960 0 960 0 0 -480 0 -480 -480 0
-480 0 0 -960 0 -960 1440 0 1440 0 0 480 0 480 480 0 480 0 0 -480 0 -480
480 0 480 0 0 480 0 480 480 0 480 0 0 480 0 480 480 0 480 0 0 -960 0 -960
-480 0 -480 0 0 -960 0 -960 480 0 480 0 0 -480 0 -480 -480 0 -480 0 0 -2400
0 -2400 480 0 480 0 0 960 0 960 480 0 480 0 0 480 0 480 -480 0 -480 0 0 960
0 960 480 0 480 0 0 -480 0 -480 960 0 960 0 0 -1440 0 -1440 960 0 960 0 0
-480 0 -480 960 0 960 0 0 480 0 480 2880 0 2880 0 0 -480 0 -480 1440 0 1440
0 0 480 0 480 -480 0 -480 0 0 480 0 480 480 0 480 0 0 960 0 960 -960 0 -960
0 0 -480 0 -480 -480 0 -480 0 0 -480 0 -480 -480 0 -480 0 0 960 0 960 480 0
480 0 0 960 0 960 1440 0 1440 0 0 2400 0 2400 -1440 0 -1440 0 0 -480 0 -480
480 0 480 0 0 -480 0 -480 480 0 480 0 0 -960 0 -960 -960 0 -960 0 0 -480 0
-480 -480 0 -480 0 0 960 0 960 480 0 480 0 0 480 0 480 -1920 0 -1920 0 0
480 0 480 480 0 480 0 0 480 0 480 480 0 480 0 0 -480 0 -480 480 0 480 0 0
960 0 960 480 0 480 0 0 480 0 480 -1920 0 -1920 0 0 480 0 480 480 0 480 0 0
480 0 480 480 0 480 0 0 -480 0 -480 480 0 480 0 0 960 0 960 480 0 480 0 0
480 0 480 -480 0 -480 0 0 -480 0 -480 -480 0 -480 0 0 480 0 480 -480 0 -480
0 0 -960 0 -960 -480 0 -480 0 0 960 0 960 -480 0 -480 0 0 960 0 960 -480 0
-480 0 0 480 0 480 480 0 480 0 0 960 0 960 -960 0 -960 0 0 -960 0 -960 -960
0 -960 0 0 480 0 480 480 0 480 0 0 480 0 480 -480 0 -480 0 0 -480 0 -480
-480 0 -480 0 0 960 0 960 1440 0 1440 0 0 960 0 960 -480 0 -480 0 0 -480 0
-480 -1440 0 -1440 0 0 -480 0 -480 -480 0 -480 0 0 960 0 960 -480 0 -480 0
0 -480z m1920 -2880 l0 -480 -480 0 -480 0 0 480 0 480 480 0 480 0 0 -480z
m5760 -4800 l0 -480 -480 0 -480 0 0 480 0 480 480 0 480 0 0 -480z m-11520
-960 l0 -480 480 0 480 0 0 480 0 480 480 0 480 0 0 -480 0 -480 -480 0 -480
0 0 -480 0 -480 480 0 480 0 0 -480 0 -480 480 0 480 0 0 1440 0 1440 480 0
480 0 0 -1920 0 -1920 -960 0 -960 0 0 -480 0 -480 480 0 480 0 0 -480 0 -480
-480 0 -480 0 0 -480 0 -480 -480 0 -480 0 0 480 0 480 -480 0 -480 0 0 -480
0 -480 -960 0 -960 0 0 480 0 480 960 0 960 0 0 480 0 480 -480 0 -480 0 0
480 0 480 -480 0 -480 0 0 960 0 960 480 0 480 0 0 480 0 480 -1440 0 -1440 0
0 480 0 480 1920 0 1920 0 0 -480z m11520 -960 l0 -480 -480 0 -480 0 0 -480
0 -480 960 0 960 0 0 -480 0 -480 -960 0 -960 0 0 -480 0 -480 480 0 480 0 0
-960 0 -960 -1440 0 -1440 0 0 480 0 480 -960 0 -960 0 0 -960 0 -960 960 0
960 0 0 -1440 0 -1440 480 0 480 0 0 1440 0 1440 480 0 480 0 0 -1920 0 -1920
-960 0 -960 0 0 -480 0 -480 -480 0 -480 0 0 480 0 480 480 0 480 0 0 480 0
480 -960 0 -960 0 0 480 0 480 480 0 480 0 0 480 0 480 -960 0 -960 0 0 -960
0 -960 -480 0 -480 0 0 960 0 960 480 0 480 0 0 480 0 480 -480 0 -480 0 0
960 0 960 -480 0 -480 0 0 480 0 480 480 0 480 0 0 -480 0 -480 480 0 480 0 0
960 0 960 -480 0 -480 0 0 480 0 480 480 0 480 0 0 -480 0 -480 480 0 480 0 0
960 0 960 480 0 480 0 0 -480 0 -480 480 0 480 0 0 480 0 480 960 0 960 0 0
480 0 480 480 0 480 0 0 -480z m-14400 -1920 l0 -480 -480 0 -480 0 0 480 0
480 480 0 480 0 0 -480z m17280 -5760 l0 -1440 -1440 0 -1440 0 0 1440 0 1440
1440 0 1440 0 0 -1440z m-1920 -2880 l0 -480 480 0 480 0 0 480 0 480 480 0
480 0 0 -960 0 -960 -1920 0 -1920 0 0 -480 0 -480 -960 0 -960 0 0 480 0 480
480 0 480 0 0 480 0 480 960 0 960 0 0 480 0 480 480 0 480 0 0 -480z m5760
-960 l0 -480 -480 0 -480 0 0 -480 0 -480 -480 0 -480 0 0 480 0 480 480 0
480 0 0 480 0 480 480 0 480 0 0 -480z"/>
<path d="M7800 15960 l0 -480 -480 0 -480 0 0 -480 0 -480 480 0 480 0 0 -480
0 -480 480 0 480 0 0 -480 0 -480 480 0 480 0 0 480 0 480 -480 0 -480 0 0
480 0 480 480 0 480 0 0 480 0 480 -480 0 -480 0 0 480 0 480 -480 0 -480 0 0
-480z"/>
<path d="M17400 15000 l0 -480 480 0 480 0 0 480 0 480 -480 0 -480 0 0 -480z"/>
<path d="M14520 14040 l0 -480 480 0 480 0 0 480 0 480 -480 0 -480 0 0 -480z"/>
<path d="M16440 13080 l0 -480 480 0 480 0 0 480 0 480 -480 0 -480 0 0 -480z"/>
<path d="M20280 9240 l0 -480 480 0 480 0 0 480 0 480 -480 0 -480 0 0 -480z"/>
<path d="M18360 26520 l0 -480 480 0 480 0 0 480 0 480 -480 0 -480 0 0 -480z"/>
<path d="M20412 26989 c-45 -13 -109 -80 -122 -127 -7 -28 -9 -1013 -8 -3244
l3 -3204 27 -41 c15 -22 44 -51 65 -64 l38 -24 3226 0 3225 0 41 27 c22 15 51
44 64 65 l24 38 0 3225 0 3225 -24 38 c-13 21 -42 50 -64 65 l-41 27 -3210 2
c-2007 1 -3223 -2 -3244 -8z m5569 -966 c64 -38 59 146 59 -2383 0 -2552 5
-2351 -65 -2384 -30 -14 -259 -16 -2335 -16 -2529 0 -2345 -5 -2383 59 -16 27
-17 180 -17 2341 0 2115 1 2314 16 2339 9 15 28 35 43 44 24 15 218 16 2339
17 2163 0 2316 -1 2343 -17z"/>
<path d="M22337 25070 c-46 -14 -93 -56 -116 -103 l-21 -44 2 -1294 3 -1294
24 -38 c13 -21 42 -50 64 -65 l41 -27 1291 -3 1292 -2 54 28 c43 22 59 38 81
81 l28 53 0 1278 0 1278 -28 53 c-22 43 -38 59 -81 81 l-53 28 -1277 -1 c-702
0 -1289 -5 -1304 -9z"/>
<path d="M10680 21240 l0 -960 480 0 480 0 0 960 0 960 -480 0 -480 0 0 -960z"/>
<path d="M25080 18840 l0 -480 480 0 480 0 0 -480 0 -480 480 0 480 0 0 480 0
480 -480 0 -480 0 0 480 0 480 -480 0 -480 0 0 -480z"/>
<path d="M24120 16920 l0 -480 480 0 480 0 0 480 0 480 -480 0 -480 0 0 -480z"/>
<path d="M25080 15000 l0 -480 960 0 960 0 0 480 0 480 -960 0 -960 0 0 -480z"/>
<path d="M3132 9709 c-45 -13 -109 -80 -122 -127 -7 -28 -9 -1013 -8 -3244 l3
-3204 27 -41 c15 -22 44 -51 65 -64 l38 -24 3226 0 3225 0 41 27 c22 15 51 44
64 65 l24 38 0 3225 0 3225 -24 38 c-13 21 -42 50 -64 65 l-41 27 -3210 2
c-2007 1 -3223 -2 -3244 -8z m5569 -966 c64 -38 59 146 59 -2383 0 -2076 -2
-2305 -16 -2335 -33 -70 168 -65 -2384 -65 -2529 0 -2345 -5 -2383 59 -16 27
-17 180 -17 2341 0 2115 1 2314 16 2339 9 15 28 35 43 44 24 15 218 16 2339
17 2163 0 2316 -1 2343 -17z"/>
<path d="M5057 7790 c-46 -14 -93 -56 -116 -103 l-21 -44 2 -1294 3 -1294 24
-38 c13 -21 42 -50 64 -65 l41 -27 1291 -3 1292 -2 54 28 c43 22 59 38 81 81
l28 53 0 1278 0 1278 -28 53 c-22 43 -38 59 -81 81 l-53 28 -1277 -1 c-702 0
-1289 -5 -1304 -9z"/>
</g>
</svg>
